<?xml version="1.0" encoding="iso-8859-1"?>
<!-- Generator: Adobe Illustrator 19.0.0, SVG Export Plug-In . SVG Version: 6.00 Build 0)  -->
<svg version="1.1" id="Capa_1" xmlns="http://www.w3.org/2000/svg" xmlns:xlink="http://www.w3.org/1999/xlink" x="0px" y="0px"
	 viewBox="0 0 512.525 512.525" style="enable-background:new 0 0 512.525 512.525;" xml:space="preserve">
<path style="fill:#FFA000;" d="M317.092,46.003L317.092,46.003L317.092,46.003c-4.231-4.099-10.984-3.991-15.083,0.24
	c-3.999,4.128-4.008,10.682-0.021,14.821l0,0c9.323,9.472,8.64,44.693,7.957,81.963c-0.235,12.032-0.469,24.896-0.469,38.4
	c0,72.405-53.035,132.373-141.867,160.491c-109.995,34.731-131.712,65.131-133.803,68.48c-1.075,1.705-1.644,3.68-1.643,5.696
	v21.333c0,5.891,4.776,10.667,10.667,10.667l0,0c157.611-0.235,330.667-128.619,330.667-245.333
	C373.412,119.817,350.905,80.094,317.092,46.003z"/>
<path style="fill:#FFC107;" d="M480.078,181.427C476.552,143.123,460.68,107,434.852,78.494
	c-14.272-16.81-33.038-29.205-54.101-35.733c-11.853-3.471-22.725-9.674-31.744-18.112c-3.599-3.623-9.261-4.186-13.504-1.344
	l-32,21.333c-4.903,3.266-6.229,9.888-2.963,14.791c0.386,0.58,0.829,1.121,1.32,1.614c30.997,31.125,50.219,65.728,50.219,141.717
	c0,104.533-164.8,223.787-309.333,224c-5.891,0-10.667,4.776-10.667,10.667v21.333c0.001,3.889,2.118,7.469,5.525,9.344
	c9.088,4.971,16.789,9.643,23.829,13.888c31.922,22.24,70.504,32.865,109.312,30.101c91.874-3.994,178.654-43.325,242.219-109.781
	c47.808-47.787,70.4-119.893,67.285-214.272C480.164,185.225,480.078,182.985,480.078,181.427z"/>
<path style="fill:#8D6E63;" d="M309.326,0.094c-6.894-0.614-13.715,1.799-18.688,6.613c-3.933,5.497-5.142,12.488-3.285,18.987
	c0.371,2.115,0.585,4.254,0.64,6.4c-1.745,15.928,9.753,30.255,25.682,32c2.1,0.23,4.219,0.23,6.318,0
	c15.928,1.745,30.255-9.753,32-25.682c0.23-2.1,0.23-4.219,0-6.318C351.993,14.153,333.241,0.094,309.326,0.094z"/>
<path d="M319.993,64.094c-15.928,1.745-30.255-9.753-32-25.682c-0.23-2.1-0.23-4.219,0-6.318c-0.057-2.147-0.278-4.287-0.661-6.4
	c-1.851-6.502-0.633-13.493,3.307-18.987c4.973-4.814,11.794-7.228,18.688-6.613c23.936,0,42.667,14.059,42.667,32
	c1.745,15.928-9.753,30.255-25.682,32C324.211,64.324,322.093,64.324,319.993,64.094z M308.281,21.427l0.171,1.088
	c0.535,3.159,0.835,6.354,0.896,9.557c0,8.533,1.259,10.667,10.667,10.667c9.408,0,10.667-2.133,10.667-10.667
	c0-4.267-8.32-10.667-21.333-10.667L308.281,21.427z"/>
<path d="M170.66,512.094c-38.679,2.757-77.14-7.78-109.013-29.867c-7.104-4.267-14.933-8.96-24.107-14.016
	c-3.416-1.869-5.542-5.45-5.547-9.344v-42.667c-0.003-2.032,0.574-4.023,1.664-5.739c2.133-3.328,23.915-33.6,133.781-68.437
	c88.853-28.331,141.888-88.277,141.888-160.597c0-13.504,0.235-26.368,0.469-38.4c0.704-37.376,1.365-72.683-8-82.069
	c-4.093-4.237-3.975-10.99,0.262-15.083c4.134-3.992,10.687-3.992,14.82,0c15.808,15.808,15.189,48.32,14.251,97.557
	c-0.235,11.904-0.469,24.619-0.469,37.995c0,82.112-58.603,149.717-156.779,180.843C88.1,389.449,60.025,413.086,53.326,420.019
	v32.469c7.147,4.032,13.461,7.829,19.328,11.371c28.54,20.103,63.201,29.617,98.005,26.901
	c86.219-3.965,167.58-41.061,227.115-103.552c65.515-65.515,62.165-165.589,61.056-198.4c0-3.115-0.192-5.589-0.192-7.317
	c-3.555-33.195-17.596-64.394-40.085-89.067c-11.93-14.132-27.697-24.506-45.397-29.867c-14.728-4.509-28.209-12.374-39.381-22.976
	c-4.093-4.237-3.975-10.99,0.262-15.083c4.134-3.992,10.687-3.992,14.82,0c9.063,8.406,19.95,14.598,31.808,18.091
	c21.064,6.569,39.822,19,54.08,35.84c25.853,28.517,41.734,64.666,45.248,102.997c0,1.557,0,3.797,0.171,6.613
	c3.157,94.357-19.477,166.4-67.307,214.272C349.304,468.773,262.529,508.106,170.66,512.094z"/>
<path d="M42.66,448.094c-5.891,0-10.667-4.776-10.667-10.667s4.776-10.667,10.667-10.667c144.555,0,309.333-119.317,309.333-224
	c0-76.267-19.2-110.805-50.219-141.781c-4.093-4.237-3.975-10.99,0.262-15.083c4.134-3.992,10.687-3.992,14.82,0
	c33.877,33.877,56.448,73.515,56.448,156.885C373.326,319.689,200.27,448.094,42.66,448.094z"/>
<g>
</g>
<g>
</g>
<g>
</g>
<g>
</g>
<g>
</g>
<g>
</g>
<g>
</g>
<g>
</g>
<g>
</g>
<g>
</g>
<g>
</g>
<g>
</g>
<g>
</g>
<g>
</g>
<g>
</g>
</svg>
